<svg xmlns="http://www.w3.org/2000/svg" xmlns:xlink="http://www.w3.org/1999/xlink" width="500" zoomAndPan="magnify" viewBox="0 0 375 374.999991" height="500" preserveAspectRatio="xMidYMid meet" version="1.2"><defs><clipPath id="07068342da"><path d="M 3 24.023438 L 372 24.023438 L 372 337.433594 L 3 337.433594 Z M 3 24.023438 "/></clipPath><clipPath id="da56fb9a56"><path d="M 351.832031 180.285156 L 360.058594 171.589844 C 374.78125 156.015625 374.78125 130.679688 360.058594 115.109375 L 284.675781 35.398438 C 277.371094 27.671875 267.613281 23.417969 257.207031 23.417969 C 246.796875 23.421875 237.042969 27.675781 229.738281 35.402344 L 222.285156 43.285156 L 214.824219 35.398438 C 207.519531 27.675781 197.765625 23.417969 187.355469 23.417969 C 176.949219 23.417969 167.191406 27.671875 159.886719 35.398438 L 152.421875 43.292969 L 144.949219 35.390625 C 137.640625 27.671875 127.890625 23.417969 117.480469 23.417969 C 117.480469 23.417969 117.476562 23.417969 117.476562 23.417969 C 107.070312 23.417969 97.3125 27.675781 90.011719 35.398438 L 14.648438 115.105469 C -0.0703125 130.679688 -0.0703125 156.015625 14.652344 171.585938 L 22.878906 180.285156 L 14.652344 188.984375 C -0.0703125 204.558594 -0.0742188 229.890625 14.648438 245.464844 L 90.007812 325.171875 C 97.316406 332.898438 107.070312 337.15625 117.476562 337.15625 C 117.480469 337.15625 117.480469 337.15625 117.480469 337.15625 C 127.886719 337.15625 137.640625 332.902344 144.945312 325.179688 L 152.421875 317.277344 L 159.886719 325.175781 C 167.191406 332.902344 176.945312 337.15625 187.355469 337.15625 C 197.761719 337.15625 207.519531 332.902344 214.824219 325.175781 L 222.28125 317.289062 L 229.738281 325.175781 C 237.042969 332.898438 246.796875 337.152344 257.207031 337.152344 C 267.613281 337.152344 277.371094 332.902344 284.675781 325.175781 L 360.054688 245.464844 C 374.78125 229.894531 374.78125 204.558594 360.054688 188.984375 Z M 159.886719 280.207031 L 152.421875 288.101562 L 50.476562 180.285156 L 101.449219 126.382812 L 152.421875 72.476562 L 159.882812 80.367188 C 160.921875 81.464844 162.023438 82.472656 163.160156 83.429688 C 165.011719 84.996094 166.972656 86.382812 169.042969 87.550781 C 169.050781 87.554688 169.054688 87.558594 169.058594 87.558594 C 171.277344 88.808594 173.605469 89.824219 176.015625 90.589844 C 176.042969 90.601562 176.078125 90.605469 176.105469 90.613281 C 178.496094 91.367188 180.960938 91.886719 183.480469 92.144531 C 184.125 92.210938 184.785156 92.210938 185.4375 92.246094 C 186.074219 92.277344 186.707031 92.34375 187.347656 92.34375 C 187.347656 92.34375 187.351562 92.34375 187.351562 92.34375 C 189.953125 92.34375 192.511719 92.074219 195.003906 91.558594 C 202.480469 89.996094 209.339844 86.15625 214.820312 80.363281 L 221.710938 73.074219 L 222.28125 72.472656 L 324.234375 180.289062 L 222.285156 288.109375 L 214.820312 280.214844 C 207.515625 272.488281 197.761719 268.234375 187.351562 268.234375 C 187.351562 268.234375 187.351562 268.234375 187.347656 268.234375 C 176.945312 268.234375 167.191406 272.484375 159.886719 280.207031 Z M 244.304688 49.175781 C 247.785156 45.496094 252.367188 43.46875 257.207031 43.46875 C 262.046875 43.46875 266.628906 45.496094 270.109375 49.171875 L 345.492188 128.882812 C 353.035156 136.859375 353.035156 149.835938 345.492188 157.8125 L 338.035156 165.695312 L 236.082031 57.878906 Z M 174.453125 49.171875 C 177.933594 45.496094 182.515625 43.46875 187.355469 43.46875 C 192.195312 43.46875 196.777344 45.496094 200.257812 49.171875 L 208.488281 57.875 L 200.253906 66.585938 C 198.078125 68.882812 195.476562 70.539062 192.644531 71.453125 C 190.949219 72.003906 189.167969 72.289062 187.355469 72.289062 C 182.515625 72.289062 177.933594 70.265625 174.453125 66.589844 L 166.222656 57.882812 Z M 29.21875 157.808594 C 21.679688 149.832031 21.679688 136.855469 29.21875 128.882812 L 104.578125 49.171875 C 108.058594 45.496094 112.640625 43.46875 117.480469 43.46875 C 122.320312 43.46875 126.902344 45.492188 130.378906 49.171875 L 138.625 57.886719 L 87.652344 111.789062 L 36.679688 165.695312 Z M 117.480469 317.105469 C 112.640625 317.105469 108.058594 315.078125 104.578125 311.398438 L 29.21875 231.691406 C 21.675781 223.714844 21.675781 210.738281 29.21875 202.761719 L 36.675781 194.875 L 138.621094 302.6875 L 130.378906 311.402344 C 126.902344 315.082031 122.320312 317.105469 117.480469 317.105469 Z M 187.355469 317.105469 C 182.515625 317.105469 177.933594 315.078125 174.453125 311.398438 L 166.21875 302.6875 L 174.453125 293.984375 C 177.929688 290.304688 182.511719 288.28125 187.351562 288.28125 C 192.191406 288.28125 196.773438 290.308594 200.253906 293.988281 L 208.488281 302.695312 L 200.257812 311.398438 C 196.777344 315.078125 192.195312 317.105469 187.355469 317.105469 Z M 345.488281 231.691406 L 270.109375 311.398438 C 266.628906 315.078125 262.046875 317.105469 257.207031 317.105469 C 252.367188 317.105469 247.785156 315.078125 244.304688 311.398438 L 236.078125 302.695312 L 338.035156 194.875 L 345.488281 202.761719 C 353.03125 210.734375 353.03125 223.714844 345.488281 231.691406 Z M 345.488281 231.691406 "/></clipPath></defs><g id="a3c5d51101"><g clip-rule="nonzero" clip-path="url(#07068342da)"><g clip-rule="nonzero" clip-path="url(#da56fb9a56)"><path style=" stroke:none;fill-rule:nonzero;fill:#000000;fill-opacity:1;" d="M 1.003906 24.023438 L 1.003906 337.15625 L 374.78125 337.15625 L 374.78125 24.023438 Z M 1.003906 24.023438 "/></g></g></g></svg>